<?xml version="1.0" encoding="UTF-8"?>
<svg width="20px" height="21px" viewBox="0 0 20 21" version="1.1" xmlns="http://www.w3.org/2000/svg" xmlns:xlink="http://www.w3.org/1999/xlink">
    <!-- Generator: Sketch 52.6 (67491) - http://www.bohemiancoding.com/sketch -->
    <title>Icon/Add</title>
    <desc>Created with Sketch.</desc>
    <g id="Icon/Add" stroke="none" stroke-width="1" fill="none" fill-rule="evenodd">
        <g fill="#FFFFFF" id="Icon">
            <path d="M11,5.25 L9,5.25 L9,9.45 L5,9.45 L5,11.55 L9,11.55 L9,15.75 L11,15.75 L11,11.55 L15,11.55 L15,9.45 L11,9.45 L11,5.25 L11,5.25 Z M10,0 C4.48,0 0,4.704 0,10.5 C0,16.296 4.48,21 10,21 C15.52,21 20,16.296 20,10.5 C20,4.704 15.52,0 10,0 L10,0 Z M10,18.9 C5.59,18.9 2,15.1305 2,10.5 C2,5.8695 5.59,2.1 10,2.1 C14.41,2.1 18,5.8695 18,10.5 C18,15.1305 14.41,18.9 10,18.9 L10,18.9 Z"></path>
        </g>
    </g>
</svg>