<?xml version="1.0" encoding="UTF-8"?>
<svg width="45px" height="46px" viewBox="0 0 45 46" version="1.1" xmlns="http://www.w3.org/2000/svg" xmlns:xlink="http://www.w3.org/1999/xlink">
    <!-- Generator: Sketch 52.6 (67491) - http://www.bohemiancoding.com/sketch -->
    <title>Icon/Birthday</title>
    <desc>Created with Sketch.</desc>
    <g id="Icon/Birthday" stroke="none" stroke-width="1" fill="none" fill-rule="evenodd" stroke-linecap="round" stroke-linejoin="round">
        <g id="Icon" stroke="#CED0DA">
            <path d="M43.1933793,45.312966 L2.4344729,45.312966 C1.56106776,45.312966 0.978797672,44.7306959 0.978797672,43.8572908 L0.978797672,29.3005385 C0.978797672,28.4271334 1.56106776,27.8448633 2.4344729,27.8448633 L43.1933793,27.8448633 C44.0667844,27.8448633 44.6490545,28.4271334 44.6490545,29.3005385 L44.6490545,43.8572908 C44.6490545,44.7306959 44.0667844,45.312966 43.1933793,45.312966 Z" id="Shape"></path>
            <path d="M7,26 L7,17 C7,15.2 8.16363636,14 9.90909091,14 L36.0909091,14 C37.8363636,14 39,15.2 39,17 L39,26" id="Shape"></path>
            <path d="M22.8139261,27.8448633 C22.8139261,31.0473488 20.1937107,33.6675642 16.9912252,33.6675642 C13.7887397,33.6675642 11.1685243,31.0473488 11.1685243,27.8448633" id="Shape"></path>
            <path d="M0.978797672,31.6296189 C2.14333785,32.7941591 3.59901308,33.6675642 5.34582336,33.6675642 C8.54830886,33.6675642 11.1685243,31.0473488 11.1685243,27.8448633" id="Shape"></path>
            <path d="M34.4593279,27.8448633 C34.4593279,31.0473488 37.0795433,33.6675642 40.2820288,33.6675642 C42.0288391,33.6675642 43.4845143,32.7941591 44.6490545,31.6296189" id="Shape"></path>
            <path d="M34.4593279,27.8448633 C34.4593279,31.0473488 31.8391125,33.6675642 28.636627,33.6675642 C25.4341415,33.6675642 22.8139261,31.0473488 22.8139261,27.8448633" id="Shape"></path>
            <path d="M22.8139261,8.92108533 L22.8139261,14.7437862" id="Shape"></path>
            <path d="M25.7252765,6.00973488 C25.7252765,7.75654515 24.5607364,8.92108533 22.8139261,8.92108533 C21.0671158,8.92108533 19.9025756,7.75654515 19.9025756,6.00973488 C19.9025756,4.26292461 22.8139261,0.187033967 22.8139261,0.187033967 C22.8139261,0.187033967 25.7252765,4.26292461 25.7252765,6.00973488 Z" id="Shape"></path>
        </g>
    </g>
</svg>