<?xml version="1.0" encoding="UTF-8"?>
<svg width="17px" height="17px" viewBox="0 0 17 17" version="1.1" xmlns="http://www.w3.org/2000/svg" xmlns:xlink="http://www.w3.org/1999/xlink">
    <!-- Generator: Sketch 52.6 (67491) - http://www.bohemiancoding.com/sketch -->
    <title>Icon/Cancel</title>
    <desc>Created with Sketch.</desc>
    <g id="Icon/Cancel" stroke="none" stroke-width="1" fill="none" fill-rule="evenodd">
        <g fill="#898989" id="Icon">
            <path d="M4.25,7.65 L4.25,9.35 L12.75,9.35 L12.75,7.65 L4.25,7.65 L4.25,7.65 Z M8.5,0 C3.808,0 0,3.808 0,8.5 C0,13.192 3.808,17 8.5,17 C13.192,17 17,13.192 17,8.5 C17,3.808 13.192,0 8.5,0 L8.5,0 Z M8.5,15.3 C4.7515,15.3 1.7,12.2485 1.7,8.5 C1.7,4.7515 4.7515,1.7 8.5,1.7 C12.2485,1.7 15.3,4.7515 15.3,8.5 C15.3,12.2485 12.2485,15.3 8.5,15.3 L8.5,15.3 Z"></path>
        </g>
    </g>
</svg>