<?xml version="1.0" encoding="UTF-8"?>
<svg width="122px" height="123px" viewBox="0 0 122 123" version="1.1" xmlns="http://www.w3.org/2000/svg" xmlns:xlink="http://www.w3.org/1999/xlink">
    <!-- Generator: Sketch 52.6 (67491) - http://www.bohemiancoding.com/sketch -->
    <title>Check Icon</title>
    <desc>Created with Sketch.</desc>
    <g id="Symbols" stroke="none" stroke-width="1" fill="none" fill-rule="evenodd">
        <g id="Component/Popup/Delete/2" transform="translate(-283.000000, -39.000000)" fill="#3AAF50">
            <g id="Content" transform="translate(50.000000, 39.000000)">
                <g id="Check-Icon" transform="translate(232.500000, 0.000000)">
                    <path d="M88.0433903,37.8461538 C90.386808,40.1960046 92.7302257,42.5458553 95.0736434,44.8957061 C83.5030185,56.6449598 71.9323935,68.2473479 60.2153049,79.8497359 C57.8718872,82.1995867 55.5284695,84.5494374 53.1850518,87.0461538 C50.8416341,84.5494374 48.4982164,82.1995867 46.1547987,79.8497359 C40.442718,74.1219747 34.5841737,68.3942135 28.872093,62.6664524 C31.2155107,60.3166016 33.5589284,57.8198852 35.9023462,55.4700344 C41.7608904,61.3446613 47.4729711,67.0724225 53.1850518,72.8001837 C64.9021404,61.1977956 76.4727653,49.4485419 88.0433903,37.8461538 Z M61.5,0 C95.2105263,0 122.5,27.5131579 122.5,61.5 C122.5,95.4868421 95.2105263,123 61.5,123 C27.7894737,123 0.5,95.4868421 0.5,61.5 C0.5,27.5131579 27.7894737,0 61.5,0 Z M60.9538797,8.51538462 C90.2547042,8.51538462 113.988372,32.4715289 113.988372,61.8991382 C113.988372,91.474625 90.2547042,115.430769 60.9538797,115.430769 C31.7995593,115.430769 8.06589147,91.474625 8.06589147,61.8991382 C8.06589147,32.4715289 31.7995593,8.51538462 60.9538797,8.51538462 Z" id="Shape"></path>
                </g>
            </g>
        </g>
    </g>
</svg>