<?xml version="1.0" encoding="UTF-8"?>
<svg width="14px" height="15px" viewBox="0 0 14 15" version="1.1" xmlns="http://www.w3.org/2000/svg" xmlns:xlink="http://www.w3.org/1999/xlink">
    <!-- Generator: Sketch 52.6 (67491) - http://www.bohemiancoding.com/sketch -->
    <title>Icon/Edit Account</title>
    <desc>Created with Sketch.</desc>
    <g id="Icon/Edit-Account" stroke="none" stroke-width="1" fill="none" fill-rule="evenodd" stroke-linecap="round" stroke-linejoin="round">
        <g transform="translate(0.183099, 0.567568)" stroke="#323235">
            <ellipse id="Oval" cx="2.1971831" cy="1.32432432" rx="1.28169014" ry="1.32432432"></ellipse>
            <path d="M0.86713166,8.72247631 L1.28634472,12.6208963 C1.28634472,12.8807909 1.45402994,13.0540541 1.70555777,13.0540541 L2.6278265,13.0540541 C2.87935434,13.0540541 3.04703956,12.8807909 3.04703956,12.6208963 L3.46625262,8.72247631 L4.30467873,8.72247631 L3.80162306,4.82405634 C3.80162306,4.56416167 3.63393784,4.39089856 3.38241001,4.39089856 L2.96319695,4.39089856 L2.12477083,5.25721411 L1.28634472,4.39089856 L0.86713166,4.39089856 C0.615603825,4.39089856 0.447918602,4.56416167 0.447918602,4.82405634 L0.0287055446,8.72247631 L0.86713166,8.72247631 Z" id="Shape"></path>
            <path d="M5.39463268,3.95774079 C5.47847529,3.87110923 5.5623179,3.69784612 5.64616052,3.61121457 L4.97541962,2.3983728 L6.40074402,1.53205725 L7.07148491,2.74489902 C7.32301275,2.65826746 7.65838319,2.65826746 7.99375364,2.65826746 C8.32912408,2.65826746 8.58065192,2.74489902 8.91602237,2.74489902 L9.58676326,1.53205725 L11.0120877,2.3983728 L10.3413468,3.61121457 C10.7605598,4.04437234 11.0959303,4.56416167 11.2636155,5.25721411 L12.6050973,5.25721411 L12.6050973,6.98984521 L11.2636155,6.98984521 C11.0959303,7.59626609 10.8444024,8.20268698 10.3413468,8.63584475 L11.0120877,9.84868652 L9.58676326,10.7150021 L8.91602237,9.5021603 C8.66449453,9.58879186 8.32912408,9.58879186 7.99375364,9.58879186 C7.65838319,9.58879186 7.40685536,9.5021603 7.07148491,9.5021603 L6.40074402,10.7150021 L5.31079007,10.0219496" id="Shape"></path>
            <ellipse id="Oval" cx="7.99375364" cy="6.12352966" rx="1.25763917" ry="1.29947332"></ellipse>
        </g>
    </g>
</svg>