<?xml version="1.0" encoding="UTF-8"?>
<svg width="71px" height="79px" viewBox="0 0 71 79" version="1.1" xmlns="http://www.w3.org/2000/svg" xmlns:xlink="http://www.w3.org/1999/xlink">
    <!-- Generator: Sketch 52.6 (67491) - http://www.bohemiancoding.com/sketch -->
    <title>Icon/Member ID</title>
    <desc>Created with Sketch.</desc>
    <g id="Icon/Member-ID" stroke="none" stroke-width="1" fill="none" fill-rule="evenodd" stroke-linecap="round" stroke-linejoin="round">
        <g id="Icon" transform="translate(2.000000, 1.000000)" stroke="#CED0DA">
            <path d="M25.7692308,45.8510638 C24.2230769,44.3191489 22.1615385,39.212766 21.1307692,38.1914894 C19.0692308,36.1489362 17.0076923,34.106383 16.4923077,31.5531915 C15.4615385,27.9787234 17.5230769,27.4680851 17.5230769,25.9361702 C17.5230769,23.3829787 17.0076923,18.2765957 18.0384615,15.7234043 C20.1,9.59574468 27.3153846,5.5106383 33.5,5 C36.0769231,5 38.6538462,5.5106383 40.7153846,7.04255319 C42.2615385,8.06382979 45.3538462,7.55319149 46.3846154,9.08510638 C47.9307692,10.6170213 48.4461538,12.1489362 48.4461538,15.7234043 C49.4769231,18.787234 49.4769231,22.8723404 49.4769231,25.9361702 C49.4769231,27.4680851 51.0230769,27.4680851 50.5076923,31.5531915 C49.9923077,34.106383 47.9307692,36.6595745 45.8692308,38.1914894 C44.3230769,39.7234043 42.7769231,44.8297872 41.2307692,45.8510638 L41.2307692,49.4255319 C41.2307692,51.9787234 42.7769231,54.0212766 45.3538462,54.5319149 L56.6923077,56.5744681 C62.8769231,57.5957447 67,63.212766 67,69.3404255 L67,74.4468085 C67,75.9787234 65.9692308,77 64.4230769,77 L2.57692308,77 C1.03076923,77 0,75.9787234 0,74.4468085 L0,69.3404255 C0,63.212766 4.12307692,58.106383 10.3076923,56.5744681 L21.6461538,54.5319149 C24.2230769,54.0212766 25.7692308,51.9787234 25.7692308,49.4255319 L25.7692308,45.8510638 Z" id="Shape"></path>
            <polyline id="Shape" points="10 0 0 0 0 15"></polyline>
            <polyline id="Shape" points="10 46 0 46 0 31"></polyline>
            <polyline id="Shape" points="57 0 67 0 67 15"></polyline>
            <polyline id="Shape" points="57 46 67 46 67 31"></polyline>
        </g>
    </g>
</svg>