<?xml version="1.0" encoding="UTF-8"?>
<svg width="71px" height="79px" viewBox="0 0 71 79" version="1.1" xmlns="http://www.w3.org/2000/svg" xmlns:xlink="http://www.w3.org/1999/xlink">
    <!-- Generator: Sketch 52.6 (67491) - http://www.bohemiancoding.com/sketch -->
    <title>Icon/Name</title>
    <desc>Created with Sketch.</desc>
    <g id="Icon/Name" stroke="none" stroke-width="1" fill="none" fill-rule="evenodd" stroke-linecap="round" stroke-linejoin="round">
        <g id="Icon" transform="translate(2.000000, 7.000000)" stroke="#CED0DA">
            <path d="M57.5,55 C56.1788991,54.1320755 54.8577982,53.2641509 53.0963303,52.8301887 L43.4082569,51.0943396 C41.206422,50.6603774 39.8853211,48.9245283 39.8853211,46.754717 L39.8853211,43.7169811 C41.206422,42.4150943 42.5275229,38.0754717 43.8486239,37.2075472 C45.6100917,35.4716981 47.3715596,33.7358491 47.8119266,31.5660377 C48.2522936,28.5283019 47.3715596,28.0943396 47.3715596,26.7924528 C47.3715596,24.6226415 47.3715596,20.7169811 46.4908257,18.5471698 C46.4908257,15.0754717 46.0504587,13.7735849 44.7293578,12.4716981 C43.8486239,11.1698113 41.206422,11.6037736 39.8853211,10.7358491 C37.6834862,9.43396226 35.9220183,9 33.7201835,9 C28.4357798,9 22.2706422,12.4716981 20.5091743,18.1132075 C19.6284404,20.2830189 20.0688073,24.6226415 20.0688073,26.7924528 C20.0688073,27.6603774 18.7477064,28.5283019 19.1880734,31.5660377 C19.6284404,33.7358491 21.3899083,35.9056604 23.1513761,37.2075472 C24.4724771,38.0754717 25.793578,42.4150943 27.1146789,43.7169811 L27.1146789,46.754717 C27.1146789,48.9245283 25.793578,50.6603774 23.5917431,51.0943396 L13.9036697,52.8301887 C12.1422018,53.2641509 10.8211009,53.6981132 9.5,55" id="Shape"></path>
            <ellipse id="Oval" cx="34" cy="32.5" rx="33.5" ry="32.5"></ellipse>
        </g>
    </g>
</svg>