<?xml version="1.0" encoding="UTF-8"?>
<svg width="71px" height="79px" viewBox="0 0 71 79" version="1.1" xmlns="http://www.w3.org/2000/svg" xmlns:xlink="http://www.w3.org/1999/xlink">
    <!-- Generator: Sketch 52.6 (67491) - http://www.bohemiancoding.com/sketch -->
    <title>Icon/Password</title>
    <desc>Created with Sketch.</desc>
    <g id="Icon/Password" stroke="none" stroke-width="1" fill="none" fill-rule="evenodd">
        <g id="Icon" transform="translate(5.000000, 1.000000)" fill="#CED0DA" fill-rule="nonzero" stroke="#CED0DA" stroke-width="0.5">
            <g id="Group" transform="translate(0.000000, 0.500000)">
                <path d="M31,0.331607229 C19.9189524,0.331607229 10.9411765,9.34777108 10.9411765,20.4761489 L10.9411765,31.4641007 L5.47058824,31.4641007 C2.47142303,31.4641007 0,33.9460959 0,36.9580675 L0,69.9220145 C0,72.9339952 2.47142303,75.4159904 5.47058824,75.4159904 L56.5294118,75.4159904 C59.5285806,75.4159904 62,72.9339952 62,69.9220145 L62,36.9580675 C62,33.9460959 59.5285806,31.4641007 56.5294118,31.4641007 L51.0588235,31.4641007 L51.0588235,20.4761489 C51.0588235,9.34777108 42.0810503,0.331607229 31,0.331607229 Z M31,3.99425783 C40.1236565,3.99425783 47.4117647,11.3135157 47.4117647,20.4761489 L47.4117647,31.4641007 L14.5882353,31.4641007 L14.5882353,20.4761489 C14.5882353,11.3135157 21.8763399,3.99425783 31,3.99425783 Z M5.47058824,35.1267513 L56.5294118,35.1267513 C57.5711941,35.1267513 58.3529412,35.9118313 58.3529412,36.9580675 L58.3529412,69.9220145 C58.3529412,70.9682506 57.5711941,71.7533398 56.5294118,71.7533398 L5.47058824,71.7533398 C4.42880953,71.7533398 3.64705882,70.9682506 3.64705882,69.9220145 L3.64705882,36.9580675 C3.64705882,35.9118313 4.42880953,35.1267513 5.47058824,35.1267513 Z M31,42.4520434 C26.9931689,42.4520434 23.7058824,45.7534651 23.7058824,49.7774361 C23.7058824,51.5737831 24.4524918,53.1356289 25.5294118,54.4129783 L25.5294118,58.9340627 C25.5294118,61.9460434 28.0008357,64.4280386 31,64.4280386 C33.9991679,64.4280386 36.4705882,61.9460434 36.4705882,58.9340627 L36.4705882,54.4129783 C37.5475091,53.1356289 38.2941176,51.5737831 38.2941176,49.7774361 C38.2941176,45.7534651 35.0068311,42.4520434 31,42.4520434 Z M31,46.1147855 C33.0358156,46.1147855 34.6470588,47.7329446 34.6470588,49.7774361 C34.6470588,50.872294 34.1710629,51.8219277 33.421875,52.4958554 C33.0364334,52.8469842 32.818715,53.3467537 32.8235294,53.8693494 L32.8235294,58.9340627 C32.8235294,59.9802988 32.0417723,60.765388 31,60.765388 C29.9582222,60.765388 29.1764706,59.9802988 29.1764706,58.9340627 L29.1764706,53.8693494 C29.181285,53.3467537 28.9635666,52.8469842 28.578125,52.4958554 C27.8289407,51.8219277 27.3529412,50.872294 27.3529412,49.7774361 C27.3529412,47.7329446 28.9641826,46.1147855 31,46.1147855 Z" id="Shape"></path>
            </g>
        </g>
    </g>
</svg>