<?xml version="1.0" encoding="UTF-8"?>
<svg width="115px" height="106px" viewBox="0 0 115 106" version="1.1" xmlns="http://www.w3.org/2000/svg" xmlns:xlink="http://www.w3.org/1999/xlink">
    <!-- Generator: Sketch 52.6 (67491) - http://www.bohemiancoding.com/sketch -->
    <title>Reset Icon</title>
    <desc>Created with Sketch.</desc>
    <g id="Symbols" stroke="none" stroke-width="1" fill="none" fill-rule="evenodd" stroke-linejoin="round">
        <g id="Component/Popup/Reset-PW/1" transform="translate(-287.000000, -40.000000)" stroke="#F5A623" stroke-width="7">
            <g id="Content" transform="translate(85.000000, 44.000000)">
                <g id="Reset-Icon" transform="translate(206.000000, 0.000000)">
                    <rect id="Rectangle-path" x="31" y="41" width="37" height="28"></rect>
                    <path d="M37,41 L37,31 C37,25.6666667 42.1333333,21 48,21 C53.8666667,21 59,25.6666667 59,31 L59,41" id="Shape"></path>
                    <path d="M85,83.3 C75.7142857,92.4 63.5714286,98 50,98 C22.1428571,98 0,76.3 0,49 C0,21.7 22.1428571,0 50,0 C77.8571429,0 100,21.7 100,49" id="Shape" stroke-linecap="round"></path>
                    <polyline id="Shape" stroke-linecap="round" points="107 32 99.6666667 49 85 35.4"></polyline>
                </g>
            </g>
        </g>
    </g>
</svg>