<?xml version="1.0" encoding="UTF-8"?>
<svg width="18px" height="16px" viewBox="0 0 18 16" version="1.1" xmlns="http://www.w3.org/2000/svg" xmlns:xlink="http://www.w3.org/1999/xlink">
    <!-- Generator: Sketch 52.6 (67491) - http://www.bohemiancoding.com/sketch -->
    <title>Icon/Thumbs Up</title>
    <desc>Created with Sketch.</desc>
    <g id="Symbols" stroke="none" stroke-width="1" fill="none" fill-rule="evenodd">
        <g id="Icon/Thumbs-Up" fill="#FFFFFF">
            <g id="Icon">
                <path d="M0,15.8333333 L3.16666667,15.8333333 L3.16666667,6.33333333 L0,6.33333333 L0,15.8333333 L0,15.8333333 Z M17.4166667,7.125 C17.4166667,6.25416667 16.7041667,5.54166667 15.8333333,5.54166667 L10.8379167,5.54166667 L11.59,1.92375 L11.61375,1.67041667 C11.61375,1.34583333 11.4791667,1.045 11.2654167,0.83125 L10.42625,0 L5.21708333,5.21708333 C4.92416667,5.50208333 4.75,5.89791667 4.75,6.33333333 L4.75,14.25 C4.75,15.1208333 5.4625,15.8333333 6.33333333,15.8333333 L13.4583333,15.8333333 C14.1154167,15.8333333 14.6775,15.4375 14.915,14.8675 L17.3058333,9.28625 C17.3770833,9.10416667 17.4166667,8.91416667 17.4166667,8.70833333 L17.4166667,7.19625 L17.40875,7.18833333 L17.4166667,7.125 L17.4166667,7.125 Z"></path>
            </g>
        </g>
    </g>
</svg>