<?xml version="1.0" encoding="UTF-8"?>
<svg width="140px" height="129px" viewBox="0 0 140 129" version="1.1" xmlns="http://www.w3.org/2000/svg" xmlns:xlink="http://www.w3.org/1999/xlink">
    <!-- Generator: Sketch 52.6 (67491) - http://www.bohemiancoding.com/sketch -->
    <title>Warning Icon</title>
    <desc>Created with Sketch.</desc>
    <g id="Symbols" stroke="none" stroke-width="1" fill="none" fill-rule="evenodd">
        <g id="Component/Popup/Delete/1" transform="translate(-274.000000, -40.000000)" fill="#D0021B">
            <g id="Content" transform="translate(50.000000, 40.000000)">
                <g id="Warning-Icon" transform="translate(224.000000, 0.000000)">
                    <path d="M20.119793,129 L119.960726,129 C136.943016,129 144.967614,115.038961 136.756397,100.333333 L86.3693843,11.1688312 C77.9715488,-3.72294372 61.922352,-3.72294372 53.5245165,11.1688312 L3.32412196,100.333333 C-5.07371356,115.225108 3.13750339,129 20.119793,129 Z M15.4543288,107.220779 L65.6547234,18.0562771 C68.0807648,13.7748918 71.0666618,12.6580087 74.0525589,18.0562771 L124.439572,107.220779 C127.425469,112.619048 124.439572,115.038961 119.774108,115.038961 L20.119793,115.038961 C13.7747617,115.038961 13.0282875,111.874459 15.4543288,107.220779 Z" id="Shape" fill-rule="nonzero"></path>
                    <path d="M65.8039216,86.7818182 L71.8431373,86.7818182 C73.7411765,86.7818182 75.2941176,85.0898681 75.2941176,83.0219292 L75.2941176,43.1671062 C75.2941176,39.9712006 73.0509804,37.5272727 70.1176471,37.5272727 L67.5294118,37.5272727 C64.5960784,37.5272727 62.3529412,39.9712006 62.3529412,43.1671062 L62.3529412,83.2099237 C62.3529412,85.2778626 63.9058824,86.7818182 65.8039216,86.7818182 Z" id="Path"></path>
                    <ellipse id="Oval" cx="70.5882353" cy="100.854545" rx="7.05882353" ry="7.03636364"></ellipse>
                </g>
            </g>
        </g>
    </g>
</svg>